<?xml version="1.0" encoding="utf-8"?>
<!-- Generator: Adobe Illustrator 16.0.0, SVG Export Plug-In . SVG Version: 6.00 Build 0)  -->
<!DOCTYPE svg PUBLIC "-//W3C//DTD SVG 1.1//EN" "http://www.w3.org/Graphics/SVG/1.1/DTD/svg11.dtd">
<svg version="1.1" id="Layer_1" xmlns="http://www.w3.org/2000/svg" xmlns:xlink="http://www.w3.org/1999/xlink" x="0px" y="0px"
	 width="345px" height="345px" viewBox="0 0 345 345" enable-background="new 0 0 345 345" xml:space="preserve">
<symbol  id="Restricted" viewBox="-32 -32 64 64">
	<path fill="#2D2D2D" d="M22.628,22.627C16.38,28.877,8.189,32,0,32c-8.19,0-16.379-3.123-22.628-9.373
		c-12.496-12.496-12.496-32.758,0-45.254C-16.379-28.875-8.19-32,0-32c8.189,0,16.38,3.125,22.628,9.373
		C35.124-10.131,35.124,10.131,22.628,22.627z M-19.092,19.092C-13.993,24.191-7.212,27,0,27c5.473,0,10.695-1.621,15.126-4.629
		l-37.497-37.496C-25.379-10.695-27-5.473-27,0C-27,7.213-24.192,13.992-19.092,19.092z M19.093-19.092C13.993-24.191,7.212-27,0-27
		c-5.473,0-10.695,1.621-15.125,4.631l37.492,37.49C29.468,4.623,28.381-9.803,19.093-19.092z"/>
</symbol>
<rect x="-0.5" y="0.5" fill="#333333" stroke="#000000" stroke-miterlimit="10" width="345" height="345"/>
<use xlink:href="#Restricted"  width="64" height="64" id="XMLID_1_" x="-32" y="-32" transform="matrix(2.6094 0 0 -2.6094 172.6719 172.3281)" overflow="visible" opacity="0.3"/>
<text transform="matrix(1 0 0 1 127.7212 161.6157)"><tspan x="0" y="0" fill="#2D2D2D" font-family="'Roboto-Regular'" font-size="64.4434">NO</tspan><tspan x="-54.123" y="51.555" fill="#2D2D2D" font-family="'Roboto-Regular'" font-size="64.4434">IMAGE</tspan></text>
</svg>
